REM DIRINDEX 1\2\6,1\2\7,1\2\8,1\2\9,1\3\10,1\3\11,1\4\12,1\4\13,1\4\14,1\5\15,1\5\16,1\5\17
REM DIRNAME cjc020,folder01,folder02,folder03,folder04,folder05,folder06,folder07,folder08,folder09,folder10,folder11,folder12,folder13,folder14,folder15,folder16
TITLE ""
FILE "1900_2_sec01_0032_0047.mp3" MP3
  TRACK 01 AUDIO
    TITLE "0:"
    INDEX 01 00:00:00
  TRACK 02 AUDIO
    TITLE "13:cjc020_2147"
    INDEX 01 00:00:19
  TRACK 03 AUDIO
    TITLE "0:"
    INDEX 01 00:01:30
  TRACK 04 AUDIO
    TITLE "14:cjc020_2148"
    INDEX 01 00:01:32
  TRACK 05 AUDIO
    TITLE "0:"
    INDEX 01 00:02:34
  TRACK 06 AUDIO
    TITLE "13:cjc020_2149"
    INDEX 01 00:03:14
  TRACK 07 AUDIO
    TITLE "0:"
    INDEX 01 00:04:23
  TRACK 08 AUDIO
    TITLE "14:cjc020_2150"
    INDEX 01 00:04:27
  TRACK 09 AUDIO
    TITLE "0:"
    INDEX 01 00:05:34
  TRACK 10 AUDIO
    TITLE "13:cjc020_2151"
    INDEX 01 00:06:14
  TRACK 11 AUDIO
    TITLE "0:"
    INDEX 01 00:07:23
  TRACK 12 AUDIO
    TITLE "14:cjc020_2152"
    INDEX 01 00:07:29
  TRACK 13 AUDIO
    TITLE "0:"
    INDEX 01 00:09:59
  TRACK 14 AUDIO
    TITLE "13:cjc020_2153"
    INDEX 01 00:10:39
  TRACK 15 AUDIO
    TITLE "0:"
    INDEX 01 00:11:35
  TRACK 16 AUDIO
    TITLE "14:cjc020_2154"
    INDEX 01 00:11:40
  TRACK 17 AUDIO
    TITLE "0:"
    INDEX 01 00:14:07
  TRACK 18 AUDIO
    TITLE "13:cjc020_2155"
    INDEX 01 00:14:64
  TRACK 19 AUDIO
    TITLE "0:"
    INDEX 01 00:15:74
  TRACK 20 AUDIO
    TITLE "14:cjc020_2156"
    INDEX 01 00:16:02
  TRACK 21 AUDIO
    TITLE "0:"
    INDEX 01 00:17:29
  TRACK 22 AUDIO
    TITLE "13:cjc020_2157"
    INDEX 01 00:18:07
  TRACK 23 AUDIO
    TITLE "0:"
    INDEX 01 00:19:11
  TRACK 24 AUDIO
    TITLE "14:cjc020_2158"
    INDEX 01 00:19:13
  TRACK 25 AUDIO
    TITLE "0:"
    INDEX 01 00:22:46
  TRACK 26 AUDIO
    TITLE "13:cjc020_2159"
    INDEX 01 00:23:30
  TRACK 27 AUDIO
    TITLE "0:"
    INDEX 01 00:24:35
  TRACK 28 AUDIO
    TITLE "14:cjc020_2160"
    INDEX 01 00:24:41
  TRACK 29 AUDIO
    TITLE "0:"
    INDEX 01 00:26:71
  TRACK 30 AUDIO
    TITLE "13:cjc020_2161"
    INDEX 01 00:27:51
  TRACK 31 AUDIO
    TITLE "0:"
    INDEX 01 00:28:60
  TRACK 32 AUDIO
    TITLE "14:cjc020_2162"
    INDEX 01 00:28:64
  TRACK 33 AUDIO
    TITLE "0:"
    INDEX 01 00:31:20
  TRACK 34 AUDIO
    TITLE "13:cjc020_2163"
    INDEX 01 00:32:00
  TRACK 35 AUDIO
    TITLE "0:"
    INDEX 01 00:33:05
  TRACK 36 AUDIO
    TITLE "14:cjc020_2164"
    INDEX 01 00:33:09
  TRACK 37 AUDIO
    TITLE "0:"
    INDEX 01 00:34:43
  TRACK 38 AUDIO
    TITLE "12:cjc020_2165"
    INDEX 01 00:36:17
  TRACK 39 AUDIO
    TITLE "0:"
    INDEX 01 00:37:40
  TRACK 40 AUDIO
    TITLE "13:cjc020_2166"
    INDEX 01 00:38:41
  TRACK 41 AUDIO
    TITLE "0:"
    INDEX 01 00:39:47
  TRACK 42 AUDIO
    TITLE "14:cjc020_2167"
    INDEX 01 00:39:51
  TRACK 43 AUDIO
    TITLE "0:"
    INDEX 01 00:43:62
  TRACK 44 AUDIO
    TITLE "13:cjc020_2168"
    INDEX 01 00:44:40
  TRACK 45 AUDIO
    TITLE "0:"
    INDEX 01 00:45:47
  TRACK 46 AUDIO
    TITLE "14:cjc020_2169"
    INDEX 01 00:45:53
  TRACK 47 AUDIO
    TITLE "0:"
    INDEX 01 00:49:20
  TRACK 48 AUDIO
    TITLE "13:cjc020_2170"
    INDEX 01 00:49:74
  TRACK 49 AUDIO
    TITLE "0:"
    INDEX 01 00:51:22
  TRACK 50 AUDIO
    TITLE "14:cjc020_2171"
    INDEX 01 00:51:24
  TRACK 51 AUDIO
    TITLE "0:"
    INDEX 01 00:52:20
  TRACK 52 AUDIO
    TITLE "13:cjc020_2172"
    INDEX 01 00:53:00
  TRACK 53 AUDIO
    TITLE "0:"
    INDEX 01 00:54:11
  TRACK 54 AUDIO
    TITLE "14:cjc020_2173"
    INDEX 01 00:54:15
  TRACK 55 AUDIO
    TITLE "0:"
    INDEX 01 00:56:24
  TRACK 56 AUDIO
    TITLE "13:cjc020_2174"
    INDEX 01 00:57:05
  TRACK 57 AUDIO
    TITLE "0:"
    INDEX 01 00:58:05
  TRACK 58 AUDIO
    TITLE "14:cjc020_2175"
    INDEX 01 00:58:07
  TRACK 59 AUDIO
    TITLE "0:"
    INDEX 01 01:00:29
  TRACK 60 AUDIO
    TITLE "13:cjc020_2176"
    INDEX 01 01:01:05
  TRACK 61 AUDIO
    TITLE "0:"
    INDEX 01 01:02:32
  TRACK 62 AUDIO
    TITLE "14:cjc020_2177"
    INDEX 01 01:02:38
  TRACK 63 AUDIO
    TITLE "0:"
    INDEX 01 01:05:30
  TRACK 64 AUDIO
    TITLE "13:cjc020_2178"
    INDEX 01 01:06:10
  TRACK 65 AUDIO
    TITLE "0:"
    INDEX 01 01:07:35
  TRACK 66 AUDIO
    TITLE "14:cjc020_2179"
    INDEX 01 01:07:39
  TRACK 67 AUDIO
    TITLE "0:"
    INDEX 01 01:08:50
